<svg height="512pt" viewBox="0 0 512 512" width="512pt" xmlns="http://www.w3.org/2000/svg"><path d="m332 512v-227c0-8.289062 6.710938-15 15-15h48.28125l7.5-30h-55.78125c-8.289062 0-15-6.710938-15-15v-48.003906c0-25.179688 15.820312-42.289063 43.402344-46.945313 13.886718-2.316406 26.191406-.941406 36.433594 1.140625l5.445312-36.648437c-23.289062-5.246094-45.363281-6.257813-67.117188-3.0625-38.652343 5.664062-62.527343 22.046875-63.164062 58.578125v74.941406c0 8.289062-6.710938 15-15 15h-30v30h30c8.289062 0 15 6.710938 15 15v227zm0 0"/><path d="m437 0h-362c-41.351562 0-75 33.648438-75 75v362c0 41.351562 33.648438 75 75 75h182v-212h-30c-8.289062 0-15-6.710938-15-15v-60c0-8.289062 6.710938-15 15-15h30v-53.277344c0-57.089844 31.398438-86.503906 88.828125-94.921875 29.515625-4.351562 60.644531-1.902343 92.386719 7.121094 7.253906 2.0625 11.835937 9.183594 10.738281 16.625l-9.84375 66.210937c-.617187 4.144532-2.960937 7.851563-6.429687 10.210938-5.90625 3.996094-10.367188 2.539062-16.613282 1.011719-10.457031-2.625-22.339844-5.625-35.652344-3.339844-16.992187 2.855469-18.414062 10.457031-18.414062 17.355469v33.003906h60c4.613281 0 8.980469 2.125 11.820312 5.769531 2.84375 3.632813 3.855469 8.378907 2.726563 12.863281l-15 60c-1.671875 6.679688-7.660156 11.367188-14.546875 11.367188h-45v212h75c41.351562 0 75-33.648438 75-75v-362c0-41.351562-33.648438-75-75-75zm0 0"/></svg>