<svg height="512pt" viewBox="0 -76 512 512" width="512pt" xmlns="http://www.w3.org/2000/svg"><path d="m226 227.929688 76.699219-47.929688-76.699219-47.929688zm0 0"/><path d="m437 0h-362c-41.351562 0-75 33.648438-75 75v210c0 41.351562 33.648438 75 75 75h362c41.351562 0 75-33.648438 75-75v-210c0-41.351562-33.648438-75-75-75zm-98.046875 192.714844-120 75c-4.707031 2.949218-10.539063 2.996094-15.21875.410156-4.773437-2.652344-7.734375-7.675781-7.734375-13.125v-150c0-5.449219 2.960938-10.472656 7.734375-13.125 4.714844-2.636719 10.589844-2.519531 15.21875.410156l120 75c4.382813 2.738282 7.046875 7.542969 7.046875 12.714844s-2.664062 9.976562-7.046875 12.714844zm0 0"/></svg>